<?xml version="1.0" encoding="UTF-8" standalone="no"?>
<svg xmlns:dc="http://purl.org/dc/elements/1.1/" xmlns:cc="http://creativecommons.org/ns#" xmlns:rdf="http://www.w3.org/1999/02/22-rdf-syntax-ns#" xmlns:svg="http://www.w3.org/2000/svg" xmlns="http://www.w3.org/2000/svg" xmlns:sodipodi="http://sodipodi.sourceforge.net/DTD/sodipodi-0.dtd" xmlns:inkscape="http://www.inkscape.org/namespaces/inkscape" version="1.1" x="0px" y="0px" viewBox="0 0 100 125" inkscape:version="0.91 r13725" sodipodi:docname="noun_64052_cc.svg">
  
  <defs/>
  <sodipodi:namedview pagecolor="#ffffff" bordercolor="#666666" borderopacity="1" objecttolerance="10" gridtolerance="10" guidetolerance="10" inkscape:pageopacity="0" inkscape:pageshadow="2" inkscape:window-width="640" inkscape:window-height="480" showgrid="false" inkscape:zoom="1.888" inkscape:cx="50" inkscape:cy="62.5" inkscape:window-x="0" inkscape:window-y="0" inkscape:window-maximized="0" inkscape:current-layer="svg2"/>
  <g transform="translate(0,-952.36218)">
    <path style="" d="m 49.221651,955.88759 c 0,0 -0.149434,4.88794 -0.930645,7.28331 -1.127417,3.45704 -4.972085,5.9308 -4.612762,9.54922 0.32391,3.26144 6.069424,6.87868 6.069424,6.87868 0,0 4.843302,-3.95137 5.826646,-6.75729 0.774258,-2.20942 0.435484,-4.75933 -0.242777,-7.00007 -1.125242,-3.7171 -6.109886,-9.95385 -6.109886,-9.95385 z m 0.445091,25.5725 c -1.635384,0 -2.913323,1.53192 -2.913323,3.43934 l 0,3.6012 6.676366,-4.32953 c -0.287927,-1.54839 -1.495701,-2.71101 -2.913324,-2.71101 l -0.849719,0 z m 3.803505,4.04629 -3.722579,2.34684 -2.994249,2.14453 0,4.93647 6.716828,-4.41045 0,-5.01739 z m 0,6.39312 -6.716828,4.2486 0,4.0058 -30.063879,0 c -0.139788,0 -0.268828,-0.01 -0.404628,0 -2.03583,0.1622 -3.601191,1.5047 -3.601191,3.1561 l 0,16.9135 0,6.4337 c 0.634962,0.4793 1.324462,0.9177 2.063604,1.2948 2.571933,1.3116 5.737473,1.9454 8.820895,1.7803 2.757351,-0.1476 5.460578,-0.9326 7.647474,-2.2255 2.187038,-1.2929 3.851634,-3.0945 4.73415,-5.0983 l 0.84972,-1.9017 0.849719,1.9017 c 1.023211,2.2205 3.034077,4.1509 5.624333,5.422 2.590307,1.2711 5.756481,1.8735 8.820895,1.6591 2.692649,-0.1886 5.329595,-0.9779 7.44516,-2.266 2.1155,-1.2882 3.728018,-3.0524 4.572299,-5.0174 l 0.768794,-1.8208 0.930645,1.7399 c 1.080519,2.0357 2.966061,3.8591 5.30063,5.1387 2.334646,1.2797 5.144566,2.0166 8.011639,2.1446 2.943842,0.1314 5.933844,-0.4179 8.497193,-1.5376 l 0,-7.6475 0,-16.9135 c 0,-1.7615 -1.814677,-3.1561 -4.046283,-3.1561 l -30.104341,0 0,-2.75145 -4.369985,2.75145 -1.942215,0 6.3122,-4.16765 0,-4.08675 z m -5.341092,13.5146 3.075174,2.8324 4.046283,-0.9307 -1.739902,3.8035 2.14453,3.5609 -4.167671,-0.4856 -2.751472,3.1561 -0.809257,-4.1273 -3.843968,-1.659 3.641654,-2.0231 0.404629,-4.1272 z m 26.826852,7.2024 3.075175,2.8324 4.046282,-0.8902 -1.739901,3.7631 2.144529,3.6011 -4.167671,-0.4855 -2.751472,3.1157 -0.809256,-4.0868 -3.843968,-1.6589 3.682117,-2.0232 0.364165,-4.1677 z m -53.572779,0.445 3.075174,2.8729 4.086746,-0.9305 -1.780365,3.8035 2.14453,3.5607 -4.127208,-0.4856 -2.791935,3.1561 -0.809256,-4.1272 -3.803506,-1.659 3.641654,-2.0231 0.364166,-4.1678 z m 43.659387,11.006 c -1.029504,1.6359 -2.50977,3.0755 -4.369985,4.2082 -2.395555,1.4584 -5.326953,2.3357 -8.375805,2.5491 -3.473302,0.2431 -7.058568,-0.3802 -9.994317,-1.8208 -2.340991,-1.1489 -4.193813,-2.8056 -5.462481,-4.6937 -1.070291,1.6549 -2.618521,3.1579 -4.531837,4.2891 -2.473735,1.4623 -5.500289,2.3011 -8.618581,2.4681 -3.490861,0.1871 -7.042331,-0.4977 -9.953855,-1.9826 -0.363802,-0.1857 -0.710268,-0.3585 -1.052033,-0.5665 l 0,10.3989 0,3.1967 4.005819,0 66.885048,0 4.046283,0 0,-3.1967 0,-9.4683 c -2.654335,1.007 -5.655266,1.4677 -8.618582,1.3354 -3.2128,-0.1435 -6.326081,-0.9938 -8.942284,-2.4278 -2.058243,-1.1282 -3.789638,-2.5984 -5.01739,-4.2891 z m -36.335616,8.3758 c 2.069573,0 3.763043,1.6935 3.763043,3.7631 0,2.0695 -1.69347,3.7226 -3.763043,3.7226 -2.06956,0 -3.72258,-1.6531 -3.72258,-3.7226 0,-2.0696 1.65302,-3.7631 3.72258,-3.7631 z m 21.121594,0.1618 c 2.069586,0 3.763043,1.6935 3.763043,3.7631 0,2.0695 -1.693457,3.7226 -3.763043,3.7226 -2.069547,0 -3.72258,-1.6531 -3.72258,-3.7226 0,-2.0696 1.653033,-3.7631 3.72258,-3.7631 z m 21.162057,0.607 c 2.069547,0 3.72258,1.653 3.72258,3.7226 0,2.0695 -1.653033,3.763 -3.72258,3.763 -2.069586,0 -3.763042,-1.6935 -3.763042,-3.763 0,-2.0696 1.693456,-3.7226 3.763042,-3.7226 z m 21.48576,10.1157 -84.6886908,0.04 0.040398,2.9133 c 0.022012,2.4701 1.9840897,3.8438 3.9653568,3.8439 l 76.5152,0.04 c 2.366667,2e-4 4.185112,-1.4868 4.167671,-3.7225 l 0,-3.1156 z" fill="#FFFEFE" fill-opacity="1" stroke="none"/>
  </g>

	<metadata>
		<rdf:RDF xmlns:rdf="http://www.w3.org/1999/02/22-rdf-syntax-ns#" xmlns:rdfs="http://www.w3.org/2000/01/rdf-schema#" xmlns:dc="http://purl.org/dc/elements/1.1/">
			<rdf:Description about="https://iconscout.com/legal#licenses" dc:title="cake candle birthday celebration" dc:description="cake candle birthday celebration" dc:publisher="Iconscout" dc:date="2016-11-20" dc:format="image/svg+xml" dc:language="en">
				<dc:creator>
					<rdf:Bag>
						<rdf:li>Rahul Kalkani</rdf:li>
					</rdf:Bag>
				</dc:creator>
			</rdf:Description>
		</rdf:RDF>
    </metadata></svg>
